<svg width="1439" height="1439" viewBox="0 0 1439 1439" fill="none" xmlns="http://www.w3.org/2000/svg">
<path d="M682.633 0.394983C607.567 5.86165 555.433 15.595 493.967 35.7283C407.3 64.1283 328.233 108.262 255.167 169.062C233.833 186.795 186.5 234.128 168.767 255.462C71.5667 372.262 17.0333 503.728 1.7 657.595C-0.566667 680.528 -0.566667 758.662 1.7 781.595C17.0333 935.462 71.5667 1066.93 168.767 1183.73C186.5 1205.06 233.833 1252.39 255.167 1270.13C371.967 1367.33 503.433 1421.86 657.3 1437.19C680.233 1439.46 758.367 1439.46 781.3 1437.19C935.167 1421.86 1066.63 1367.33 1183.43 1270.13C1204.77 1252.39 1252.1 1205.06 1269.83 1183.73C1358.23 1077.46 1412.9 955.328 1431.83 821.862C1437.57 781.995 1438.5 766.262 1438.5 719.595C1438.5 672.928 1437.57 657.195 1431.83 617.328C1412.9 483.862 1358.23 361.728 1269.83 255.462C1252.1 234.128 1204.77 186.795 1183.43 169.062C1068.5 73.4616 937.433 18.2616 788.633 2.92832C769.3 0.928317 698.5 -0.805017 682.633 0.394983ZM1080.5 379.728C1085.7 384.928 1089.97 390.262 1089.97 391.595C1089.97 392.928 1090.9 394.662 1091.97 395.595C1093.7 396.928 1093.97 402.662 1093.97 431.595C1093.97 460.528 1093.7 466.262 1091.97 467.595C1090.9 468.528 1089.97 471.462 1089.97 474.262C1089.97 477.462 1089.3 479.595 1087.97 480.128C1086.63 480.528 1085.97 482.662 1085.97 485.995C1085.97 489.062 1085.17 491.995 1083.97 492.928C1082.9 493.862 1081.97 495.595 1081.97 496.928C1081.97 498.128 1080.77 500.262 1079.3 501.595C1077.83 502.928 1076.63 505.328 1076.63 506.795C1076.5 508.395 1074.77 511.062 1072.63 512.928C1070.37 514.662 1068.63 517.195 1068.63 518.528C1068.63 519.862 1061.97 527.595 1053.83 535.595C1044.23 545.195 1039.3 551.062 1039.83 552.262C1040.37 553.995 1045.17 554.262 1068.9 554.262C1096.1 554.262 1097.3 554.395 1100.23 557.195C1102.9 559.728 1103.3 561.328 1103.3 570.128V580.128L1095.7 587.862C1091.03 592.528 1086.9 595.595 1085.17 595.595C1083.57 595.595 1081.97 596.528 1081.43 597.595C1080.77 599.328 1074.63 599.595 1036.77 599.595C997.967 599.595 992.767 599.862 992.1 601.728C991.7 602.928 991.3 619.862 991.3 639.462C991.3 673.462 991.433 675.328 993.967 677.595C995.967 679.462 996.633 681.728 996.633 686.928C996.633 691.995 997.167 694.262 998.633 694.795C999.7 695.195 1000.63 697.062 1000.63 698.928C1000.63 700.795 1001.57 702.662 1002.63 703.062C1003.7 703.595 1004.63 705.062 1004.63 706.528C1004.63 707.995 1008.1 712.662 1012.23 717.062L1019.97 724.928H1039.43C1057.17 724.928 1059.03 724.662 1061.3 722.262C1062.63 720.795 1064.77 719.595 1065.97 719.595C1067.3 719.595 1069.03 718.662 1069.97 717.595C1070.9 716.528 1072.63 715.595 1073.83 715.595C1074.9 715.595 1081.17 710.395 1087.57 703.995L1099.3 692.262V668.795C1099.3 649.462 1099.7 644.928 1101.3 643.595C1102.5 642.662 1103.3 639.728 1103.3 636.795C1103.3 633.062 1103.97 631.328 1105.97 630.262C1107.97 629.195 1108.63 627.462 1108.63 623.728C1108.63 620.795 1109.43 617.862 1110.63 616.928C1111.7 615.995 1112.63 614.262 1112.63 613.062C1112.63 611.728 1114.5 609.062 1116.63 606.928C1118.9 604.795 1120.63 602.128 1120.63 600.928C1120.63 597.862 1142.77 575.595 1145.83 575.595C1147.17 575.595 1149.3 574.395 1150.63 572.928C1151.97 571.462 1154.1 570.262 1155.3 570.262C1156.63 570.262 1158.37 569.328 1159.3 568.262C1160.23 567.195 1162.37 566.262 1163.97 566.262C1165.7 566.262 1167.3 565.328 1167.83 564.262C1168.23 562.928 1170.37 562.262 1173.97 562.262C1177.57 562.262 1179.7 561.595 1180.1 560.262C1180.77 558.662 1184.23 558.262 1199.3 558.262C1214.37 558.262 1217.83 558.662 1218.5 560.262C1218.9 561.595 1221.03 562.262 1224.63 562.262C1228.23 562.262 1230.37 562.928 1230.77 564.262C1231.3 565.328 1232.9 566.262 1234.37 566.262C1238.23 566.262 1252.63 580.662 1252.63 584.395C1252.63 585.995 1253.57 587.595 1254.63 588.128C1255.7 588.528 1256.63 590.395 1256.63 592.262C1256.63 594.128 1257.57 595.995 1258.63 596.395C1260.23 597.062 1260.63 600.662 1260.63 616.928C1260.63 632.795 1260.23 636.928 1258.63 638.262C1257.57 639.195 1256.63 641.995 1256.63 644.528C1256.63 647.995 1255.57 649.995 1251.97 653.062C1249.43 655.328 1247.3 658.262 1247.3 659.595C1247.3 663.062 1225.43 684.928 1221.97 684.928C1220.5 684.928 1218.9 685.862 1218.5 686.928C1217.97 687.995 1216.37 688.928 1214.63 688.928C1213.03 688.928 1210.9 689.862 1209.97 690.928C1209.03 691.995 1207.3 692.928 1205.97 692.928C1204.77 692.928 1202.63 694.128 1201.3 695.595C1199.7 697.328 1197.17 698.262 1193.97 698.262C1190.77 698.262 1188.63 698.928 1188.1 700.262C1187.7 701.595 1185.57 702.262 1182.23 702.262C1179.17 702.262 1176.23 703.062 1175.3 704.262C1174.37 705.462 1171.43 706.262 1168.5 706.262C1164.1 706.262 1163.17 706.795 1162.5 709.462C1161.83 712.128 1162.9 713.862 1167.83 718.795C1171.17 722.128 1175.03 724.928 1176.5 724.928C1177.83 724.928 1179.3 725.862 1179.83 726.928C1180.37 728.662 1184.5 728.928 1205.03 728.928C1225.3 728.928 1229.97 728.528 1231.3 726.928C1232.23 725.862 1233.97 724.928 1235.3 724.928C1236.5 724.928 1238.63 723.728 1239.97 722.262C1241.3 720.795 1243.7 719.595 1245.3 719.595C1247.03 719.595 1248.63 718.662 1249.17 717.595C1249.57 716.528 1251.43 715.595 1253.3 715.595C1255.17 715.595 1257.03 714.662 1257.43 713.595C1257.97 712.528 1259.57 711.595 1261.17 711.595C1262.77 711.595 1265.57 709.862 1267.3 707.595C1269.17 705.462 1271.83 703.728 1273.3 703.595C1274.9 703.595 1282.1 697.462 1291.3 688.262L1306.63 672.795L1313.3 673.195C1319.57 673.595 1319.97 673.862 1320.37 677.328C1320.63 679.462 1321.7 681.462 1322.77 681.862C1325.57 682.928 1325.43 703.995 1322.63 706.262C1321.57 707.195 1320.63 709.328 1320.63 710.928C1320.63 712.662 1319.7 714.262 1318.63 714.795C1317.57 715.195 1316.63 716.662 1316.63 718.262C1316.63 721.462 1297.57 740.928 1294.37 740.928C1293.17 740.928 1289.57 743.595 1286.37 746.928C1283.3 750.262 1279.57 752.928 1278.1 752.928C1276.77 752.928 1274.9 753.862 1273.97 754.928C1273.03 755.995 1271.3 756.928 1269.97 756.928C1268.77 756.928 1266.63 758.128 1265.3 759.595C1263.97 761.062 1261.57 762.262 1259.97 762.262C1258.23 762.262 1256.63 763.195 1256.1 764.262C1255.7 765.328 1253.83 766.262 1251.97 766.262C1250.1 766.262 1248.23 767.195 1247.83 768.262C1247.3 769.595 1245.17 770.262 1241.97 770.262C1239.17 770.262 1236.23 771.195 1235.3 772.262C1232.77 775.195 1165.83 775.195 1163.3 772.262C1162.37 771.195 1159.43 770.262 1156.63 770.262C1153.43 770.262 1151.3 769.595 1150.77 768.262C1150.37 767.195 1148.5 766.262 1146.63 766.262C1144.77 766.262 1142.9 765.328 1142.5 764.262C1141.97 763.195 1140.37 762.262 1138.77 762.262C1136.9 762.262 1132.1 758.395 1125.3 751.595C1118.37 744.662 1113.7 740.928 1111.7 740.928C1109.83 740.928 1105.7 743.995 1100.77 748.928C1096.37 753.328 1091.7 756.928 1090.37 756.928C1089.03 756.928 1086.23 759.062 1084.1 761.595C1081.57 764.528 1079.03 766.262 1077.03 766.262C1075.3 766.262 1073.57 767.195 1073.17 768.262C1072.63 769.595 1070.5 770.262 1067.3 770.262C1064.5 770.262 1061.57 771.195 1060.63 772.262C1058.1 775.195 999.167 775.195 996.633 772.262C995.7 771.195 993.967 770.262 992.633 770.262C991.3 770.262 989.567 769.328 988.633 768.262C987.7 767.195 985.967 766.262 984.633 766.262C981.567 766.262 953.967 738.662 953.967 735.595C953.967 734.262 953.033 732.528 951.967 731.595C950.9 730.662 949.967 728.928 949.967 727.728C949.967 726.395 948.5 723.995 946.633 722.262L943.167 719.062L922.633 739.595C904.1 758.128 902.233 760.395 903.967 762.262C905.7 764.128 905.967 780.528 905.967 881.862C905.967 997.462 905.967 999.195 908.633 1001.59C910.1 1002.93 911.3 1005.06 911.3 1006.26C911.3 1007.59 912.233 1009.33 913.3 1010.26C914.367 1011.19 915.3 1013.19 915.3 1014.79C915.433 1016.26 917.167 1019.06 919.3 1020.93C924.367 1025.06 924.767 1031.73 920.367 1036.39L917.3 1039.59H875.167H833.167L829.567 1035.86C826.633 1032.79 826.1 1030.93 825.7 1022.93C825.167 1010.13 822.9 1009.86 811.3 1021.59C805.7 1027.33 801.7 1030.26 799.567 1030.26C797.967 1030.26 796.233 1031.19 795.833 1032.26C795.3 1033.33 793.567 1034.26 791.833 1034.26C790.1 1034.26 788.1 1035.46 787.3 1036.93C785.967 1039.46 784.5 1039.59 761.967 1039.59C739.433 1039.59 737.967 1039.46 736.633 1036.93C735.833 1035.46 733.967 1034.26 732.633 1034.26C728.9 1034.26 707.3 1012.79 707.3 1009.06C707.3 1007.46 706.367 1005.86 705.3 1005.46C703.967 1004.93 703.3 1002.79 703.3 999.595C703.3 996.395 702.367 993.862 700.633 992.262C698.1 989.995 697.967 988.128 697.967 952.262C697.967 916.395 698.1 914.528 700.633 912.262C702.367 910.662 703.3 908.128 703.3 904.928C703.3 901.728 703.967 899.595 705.3 899.062C706.633 898.662 707.3 896.528 707.3 893.195C707.3 889.328 708.233 887.195 711.3 884.262C713.567 882.128 715.3 879.462 715.3 878.262C715.3 875.195 737.433 852.928 740.367 852.928C741.7 852.928 744.767 850.795 747.3 848.262C750.9 844.528 752.9 843.595 756.767 843.595C759.833 843.595 761.967 842.928 762.5 841.595C763.033 839.995 768.233 839.595 794.233 839.328L825.3 838.928L825.7 828.928L826.1 818.928L817.967 810.928C810.367 803.328 809.967 802.662 809.967 796.395C809.967 787.862 813.567 783.595 820.767 783.595C823.833 783.595 825.967 782.928 826.367 781.728C826.9 780.528 829.433 779.595 832.9 779.328C837.7 778.928 838.767 778.395 839.033 775.862C839.433 773.328 836.767 769.995 826.767 760.128C819.167 752.662 813.967 746.395 813.967 744.795C813.967 738.662 809.833 741.062 795.567 755.462C785.967 765.195 779.967 770.262 778.1 770.262C776.5 770.262 774.9 771.195 774.5 772.262C773.833 773.995 769.7 774.262 749.167 774.262C728.5 774.262 724.367 773.995 723.833 772.262C723.3 771.195 721.7 770.262 720.233 770.262C716.767 770.262 703.3 757.328 703.3 753.995C703.3 752.795 701.167 749.728 698.633 747.195C696.1 744.662 693.967 741.328 693.967 739.728C693.967 738.128 693.033 736.528 691.967 736.128C690.233 735.462 689.967 729.995 689.967 698.262C689.967 666.528 690.233 661.062 691.967 660.395C693.3 659.995 693.967 657.862 693.967 654.528C693.967 651.462 694.767 648.528 695.967 647.595C697.033 646.662 697.967 644.928 697.967 643.595C697.967 642.395 699.167 640.262 700.633 638.928C702.1 637.595 703.3 635.195 703.3 633.595C703.3 631.862 704.233 630.262 705.3 629.728C706.367 629.328 707.3 627.595 707.3 625.728C707.3 623.995 708.233 622.262 709.3 621.728C710.367 621.328 711.3 619.728 711.3 618.128C711.3 614.662 750.1 575.595 753.567 575.595C754.9 575.595 757.7 573.462 759.833 570.928C763.033 567.195 764.633 566.262 768.767 566.262C771.433 566.262 774.367 565.328 775.3 564.262C776.233 563.195 777.967 562.262 779.3 562.262C780.633 562.262 782.367 561.328 783.3 560.262C784.633 558.662 788.5 558.262 802.233 558.262H819.567L824.633 563.328C827.433 566.128 829.967 569.862 830.233 571.595C830.633 574.928 830.633 574.928 848.633 575.328C873.033 575.862 872.633 575.462 872.633 598.528C872.633 612.528 872.233 615.862 870.633 616.395C869.167 617.062 868.633 619.595 868.633 627.062C868.633 635.462 868.233 637.062 865.967 638.262C863.7 639.462 863.3 641.062 863.3 649.462C863.3 656.928 862.767 659.462 861.3 660.128C859.7 660.662 859.3 663.462 859.3 672.795C859.3 682.128 858.9 684.795 857.3 685.462C855.7 685.995 855.3 689.195 855.3 701.862C855.3 716.928 855.433 717.595 858.9 721.195C862.1 724.528 863.433 724.928 870.767 724.928H879.167L905.033 699.062C921.7 682.395 931.967 673.062 934.1 672.662L937.3 672.262L937.7 638.928C937.833 620.528 937.7 604.262 937.3 602.528C936.633 599.728 936.1 599.595 921.033 599.595H905.433L900.367 594.662C895.3 589.728 895.3 589.728 895.3 578.662V567.728L901.967 560.928L908.767 554.262H923.833C938.5 554.262 938.9 554.128 942.367 550.528C945.7 547.062 945.967 545.862 945.967 535.995C945.967 528.128 946.5 524.795 947.967 523.595C949.3 522.528 949.967 519.462 949.967 514.662C949.967 509.595 950.5 507.328 951.967 506.795C953.3 506.262 953.967 504.128 953.967 500.928C953.967 497.728 954.9 495.195 956.633 493.595C958.633 491.728 959.3 489.462 959.3 484.262C959.3 479.195 959.833 476.928 961.3 476.395C962.633 475.995 963.3 473.862 963.3 470.528C963.3 467.462 964.1 464.528 965.3 463.595C966.367 462.662 967.3 460.928 967.3 459.595C967.3 458.262 968.233 456.528 969.3 455.595C970.367 454.662 971.3 452.528 971.3 450.928C971.3 449.195 972.233 447.595 973.3 447.062C974.633 446.662 975.3 444.528 975.3 441.195C975.3 436.928 976.1 435.328 979.967 432.128C982.633 429.995 984.633 427.062 984.633 425.462C984.633 423.862 985.567 421.862 986.633 420.928C987.7 419.995 988.633 418.262 988.633 417.062C988.633 415.728 990.5 413.062 992.633 410.928C994.9 408.795 996.633 406.128 996.633 404.795C996.633 401.862 1020.37 378.262 1023.3 378.262C1024.63 378.262 1026.37 377.328 1027.3 376.262C1028.23 375.195 1029.97 374.262 1031.3 374.262C1032.63 374.262 1034.37 373.328 1035.3 372.262C1036.63 370.662 1040.5 370.262 1053.97 370.262H1071.03L1080.5 379.728ZM1285.97 440.262C1285.97 447.995 1286.5 450.528 1287.97 451.062C1289.3 451.595 1289.97 453.728 1289.97 456.928C1289.97 460.128 1290.9 462.662 1292.63 464.262C1294.1 465.595 1295.3 467.595 1295.3 468.795C1295.3 471.995 1314.1 490.262 1317.43 490.262C1319.03 490.262 1320.63 491.195 1321.17 492.262C1321.7 493.728 1323.97 494.262 1329.03 494.262C1333.83 494.262 1336.9 494.928 1337.97 496.262C1339.03 497.595 1342.1 498.262 1346.77 498.262C1350.77 498.262 1353.97 498.795 1353.97 499.595C1353.97 500.262 1352.77 500.928 1351.3 500.928C1349.83 500.928 1347.57 502.128 1346.37 503.595C1344.63 505.595 1342.37 506.262 1337.17 506.262C1332.63 506.262 1329.7 506.928 1328.63 508.262C1327.7 509.328 1324.77 510.262 1321.97 510.262C1318.77 510.262 1316.63 510.928 1316.1 512.262C1315.7 513.328 1314.1 514.262 1312.5 514.262C1308.77 514.262 1299.3 523.728 1299.3 527.462C1299.3 529.062 1298.37 530.662 1297.3 531.062C1296.23 531.595 1295.3 533.195 1295.3 534.928C1295.3 536.528 1294.1 538.928 1292.63 540.262C1291.17 541.595 1289.97 543.728 1289.97 544.928C1289.97 546.262 1289.03 547.995 1287.97 548.928C1286.63 549.995 1285.97 553.062 1285.97 557.728C1285.97 561.728 1285.7 564.928 1285.3 564.928C1284.9 564.928 1283.43 563.728 1281.97 562.262C1280.1 560.395 1279.3 557.862 1279.3 553.195C1279.3 548.395 1278.63 545.995 1276.63 544.262C1275.17 542.928 1273.97 540.795 1273.97 539.595C1273.97 538.262 1273.03 536.528 1271.97 535.595C1270.9 534.662 1269.97 532.795 1269.97 531.462C1269.97 528.262 1255.97 514.262 1252.77 514.262C1251.43 514.262 1249.57 513.328 1248.63 512.262C1247.7 511.195 1245.97 510.262 1244.63 510.262C1243.3 510.262 1241.57 509.328 1240.63 508.262C1239.57 506.928 1236.63 506.262 1232.37 506.262C1227.3 506.262 1224.9 505.595 1222.5 503.195C1218.1 499.062 1218.5 498.262 1224.5 498.262C1227.43 498.262 1230.37 497.462 1231.3 496.262C1232.23 495.062 1235.17 494.262 1238.23 494.262C1241.57 494.262 1243.7 493.595 1244.1 492.262C1244.63 491.195 1246.23 490.262 1247.97 490.262C1249.57 490.262 1251.97 489.062 1253.3 487.595C1254.63 486.128 1256.63 484.928 1257.7 484.928C1260.77 484.928 1265.97 479.595 1265.97 476.395C1266.1 474.795 1267.83 472.128 1269.97 470.262C1272.23 468.528 1273.97 465.728 1273.97 463.995C1273.97 462.395 1275.17 460.395 1276.63 459.595C1278.77 458.395 1279.3 456.795 1279.3 451.062C1279.3 446.395 1279.97 443.328 1281.3 442.262C1282.5 441.328 1283.3 438.395 1283.3 435.462C1283.3 432.528 1283.97 430.262 1284.63 430.262C1285.43 430.262 1285.97 434.528 1285.97 440.262ZM642.9 522.528C645.833 525.328 645.967 526.262 645.967 544.795C645.967 563.595 646.1 564.395 649.167 567.195C651.567 569.462 653.967 570.262 658.767 570.262C667.833 570.262 671.3 573.728 671.3 582.928C671.3 592.795 668.233 595.328 655.967 595.862L646.633 596.262L646.233 653.328C645.967 703.195 646.233 710.395 647.967 711.062C649.033 711.595 649.967 713.195 649.967 714.795C649.967 716.662 653.033 720.662 658.633 725.995L667.3 734.128V742.795C667.3 750.928 667.033 751.595 662.1 756.795C659.167 759.862 655.567 762.262 653.967 762.262C652.5 762.262 650.9 763.195 650.5 764.262C649.833 765.995 645.567 766.262 624.1 766.262H598.367L588.9 756.928C583.567 751.728 579.3 746.395 579.3 745.062C579.3 743.728 578.367 741.862 577.3 740.928C576.233 739.995 575.3 737.195 575.3 734.795C575.3 731.862 574.367 729.462 572.633 727.995C570.1 725.728 569.967 723.995 569.967 665.462C569.967 613.595 569.7 605.062 567.967 603.595C566.9 602.662 565.967 600.928 565.967 599.728C565.967 598.528 563.3 594.795 559.967 591.595C555.167 586.795 553.967 584.795 553.967 581.062C553.967 575.595 558.367 570.262 562.767 570.262C564.367 570.262 565.967 569.328 566.5 568.262C566.9 566.928 569.033 566.262 572.633 566.262C576.233 566.262 578.367 565.595 578.767 564.262C579.3 563.195 580.9 562.262 582.633 562.262C584.233 562.262 586.367 561.328 587.3 560.262C588.233 559.195 589.967 558.262 591.167 558.262C592.367 558.262 601.967 549.595 612.633 538.928C633.567 517.862 636.367 516.395 642.9 522.528ZM274.767 568.262C275.3 569.728 277.567 570.262 282.633 570.262C287.833 570.262 290.1 570.928 291.967 572.928C293.3 574.395 295.7 575.595 297.3 575.595C299.033 575.595 300.633 576.528 301.167 577.595C301.567 578.662 303.3 579.595 305.033 579.595C306.767 579.595 309.433 581.195 311.3 583.595C313.167 585.728 315.833 587.462 317.3 587.595C318.9 587.595 324.233 591.728 329.7 597.328C337.967 605.595 339.3 607.595 339.3 611.728C339.3 615.328 340.233 617.195 343.3 619.595C346.633 622.528 347.167 623.862 347.3 629.728C347.3 634.128 347.967 637.195 349.3 638.262C350.9 639.595 351.3 644.662 351.3 668.262C351.3 691.862 350.9 696.928 349.3 698.262C348.233 699.195 347.3 702.128 347.3 704.928C347.3 708.128 346.633 710.262 345.3 710.795C344.233 711.195 343.3 713.062 343.3 714.928C343.3 716.795 342.367 718.662 341.3 719.062C340.233 719.595 339.3 721.195 339.3 722.662C339.3 726.795 313.033 752.928 308.9 752.928C307.3 752.928 305.567 753.862 305.167 754.928C304.633 755.995 302.9 756.928 301.167 756.928C299.433 756.928 297.433 758.128 296.633 759.595C295.567 761.595 293.833 762.262 290.1 762.262C287.167 762.262 284.233 763.062 283.3 764.262C281.833 765.995 275.967 766.262 245.033 766.262C213.833 766.262 208.5 765.995 207.833 764.262C207.3 763.195 205.7 762.262 204.1 762.262C202.5 762.262 200.233 761.062 198.9 759.595C197.567 757.862 195.033 756.928 192.233 756.928C189.033 756.928 186.767 755.862 183.967 752.928C181.833 750.662 179.167 748.928 177.833 748.928C174.9 748.928 156.633 730.662 156.633 727.595C156.633 726.262 155.7 724.528 154.633 723.595C153.567 722.662 152.633 720.928 152.633 719.595C152.633 718.262 151.7 716.528 150.633 715.595C149.433 714.662 148.633 711.728 148.633 708.795C148.633 705.062 147.967 703.328 145.967 702.262C143.433 700.928 143.3 699.462 143.3 669.062C143.3 639.062 143.433 637.195 145.967 634.928C147.7 633.328 148.633 630.795 148.633 627.595C148.633 624.395 149.3 622.262 150.633 621.728C151.7 621.328 152.633 619.595 152.633 617.862C152.633 615.995 153.567 613.862 154.633 612.928C155.7 611.995 156.633 610.262 156.633 609.062C156.633 606.262 179.3 583.595 182.1 583.595C183.3 583.595 185.033 582.662 185.967 581.595C186.9 580.528 189.033 579.595 190.9 579.595C192.633 579.595 194.367 578.662 194.767 577.595C195.3 576.528 197.033 575.595 198.767 575.595C200.5 575.595 202.5 574.395 203.3 572.928C204.5 570.795 206.1 570.262 211.833 570.262C216.5 570.262 219.567 569.595 220.633 568.262C221.967 566.662 226.767 566.262 248.233 566.262C269.967 566.262 274.233 566.528 274.767 568.262ZM488.1 568.262C488.633 569.728 490.9 570.262 495.967 570.262C501.167 570.262 503.433 570.928 505.3 572.928C506.9 574.662 509.433 575.595 512.633 575.595C515.833 575.595 517.967 576.262 518.5 577.595C518.9 578.662 520.633 579.595 522.233 579.595C526.233 579.595 548.633 601.728 548.633 605.728C548.633 607.328 549.567 608.928 550.633 609.462C551.7 609.862 552.633 611.728 552.633 613.595C552.633 615.462 553.567 617.328 554.633 617.728C556.233 618.395 556.633 621.462 556.633 634.262C556.633 647.062 556.233 650.128 554.633 650.795C553.567 651.195 552.633 652.795 552.633 654.395C552.633 657.995 533.833 676.928 530.233 676.928C528.767 676.928 527.3 677.862 526.767 678.928C526.233 680.528 523.567 680.928 514.633 680.928C505.7 680.928 503.033 680.528 502.5 678.928C501.967 677.862 500.367 676.928 498.767 676.928C497.033 676.928 492.367 673.328 486.233 667.195L476.633 657.595L476.367 624.928L475.967 592.262L470.367 591.862C465.3 591.462 464.233 591.995 457.433 598.662C452.9 603.062 449.967 606.928 449.967 608.795C449.967 610.395 449.033 611.995 447.967 612.395C446.5 613.062 445.967 615.328 445.967 620.928C445.967 626.528 445.433 628.795 443.967 629.462C442.233 630.128 441.967 635.195 441.967 664.128C441.967 692.928 442.233 698.128 443.967 698.795C445.3 699.195 445.967 701.328 445.967 704.662C445.967 707.728 446.767 710.662 447.967 711.595C449.033 712.528 449.967 714.262 449.967 715.462C449.967 716.528 455.167 722.795 461.567 729.195L473.3 740.928H484.767C493.433 740.928 496.767 740.395 497.967 738.928C498.9 737.862 500.767 736.928 502.1 736.928C505.3 736.928 519.3 722.928 519.3 719.728C519.3 718.395 520.233 716.528 521.3 715.595C522.367 714.662 523.3 712.928 523.3 711.728C523.3 710.528 525.833 706.928 529.033 703.862C534.367 698.528 535.167 698.262 542.5 698.262C549.167 698.262 550.767 698.795 553.433 701.728C556.233 704.662 556.633 706.395 556.633 715.462C556.633 723.195 556.1 726.395 554.633 727.595C553.567 728.528 552.633 730.262 552.633 731.595C552.633 734.662 534.5 752.928 531.433 752.928C530.1 752.928 528.233 753.862 527.3 754.928C526.367 755.995 524.633 756.928 523.3 756.928C522.1 756.928 519.967 758.128 518.633 759.595C517.033 761.328 514.5 762.262 511.3 762.262C508.1 762.262 505.967 762.928 505.433 764.262C504.767 765.995 499.167 766.262 465.433 766.262C431.833 766.262 426.1 765.995 425.433 764.262C425.033 763.195 423.167 762.262 421.433 762.262C419.433 762.262 417.433 761.195 416.633 759.595C415.567 757.595 413.833 756.928 410.233 756.928C406.367 756.928 404.233 755.995 401.3 752.928C399.167 750.662 396.5 748.928 395.3 748.928C392.633 748.928 369.967 726.128 369.967 723.462C369.967 722.262 369.033 720.528 367.967 719.595C366.9 718.662 365.967 716.528 365.967 714.662C365.967 712.928 365.033 711.195 363.967 710.795C362.633 710.262 361.967 708.128 361.967 704.928C361.967 701.728 361.033 699.195 359.3 697.595C356.767 695.328 356.633 693.462 356.633 668.262C356.633 643.062 356.767 641.195 359.3 638.928C361.033 637.328 361.967 634.795 361.967 631.595C361.967 628.395 362.633 626.262 363.967 625.728C365.033 625.328 365.967 623.462 365.967 621.595C365.967 619.728 366.9 617.862 367.967 617.462C369.033 616.928 369.967 615.328 369.967 613.862C369.967 609.862 396.233 583.595 400.1 583.595C401.7 583.595 403.3 582.662 403.833 581.595C404.233 580.528 406.1 579.595 407.967 579.595C409.833 579.595 411.7 578.662 412.1 577.595C412.633 576.528 414.233 575.595 415.967 575.595C417.567 575.595 419.967 574.395 421.3 572.928C423.167 570.928 425.433 570.262 430.633 570.262C435.7 570.262 437.967 569.728 438.5 568.262C439.033 566.528 443.167 566.262 463.3 566.262C483.433 566.262 487.567 566.528 488.1 568.262ZM91.3 734.128C91.3 737.062 92.1 739.995 93.3 740.928C94.6333 741.995 95.3 745.062 95.3 749.728C95.3 755.462 95.8333 757.062 97.9667 758.262C99.4333 759.062 100.633 760.928 100.633 762.395C100.633 766.128 118.1 783.595 121.833 783.595C123.3 783.595 125.167 784.795 125.967 786.262C127.033 788.262 128.767 788.928 132.5 788.928C135.433 788.928 138.367 789.728 139.3 790.928C140.233 792.128 143.167 792.928 146.1 792.928C150.767 792.928 151.3 793.328 151.3 796.262C151.3 799.195 150.767 799.595 146.233 799.595C142.767 799.595 140.233 800.528 138.633 802.262C137.033 803.995 134.5 804.928 131.3 804.928C128.1 804.928 125.967 805.595 125.433 806.928C125.033 807.995 123.433 808.928 121.833 808.928C118.367 808.928 100.633 826.528 100.633 829.995C100.633 831.328 99.4333 833.328 97.9667 834.662C95.9667 836.395 95.3 838.528 95.3 844.128C95.3 849.328 94.7667 851.462 93.3 852.128C91.9667 852.528 91.3 854.662 91.3 858.262C91.3 861.195 90.7667 863.595 89.9667 863.595C89.3 863.595 88.6333 862.128 88.6333 860.262C88.6333 858.395 87.7 856.528 86.6333 856.128C85.1667 855.595 84.6333 853.328 84.6333 848.262C84.6333 843.062 83.9667 840.795 81.9667 838.928C80.3667 837.462 79.3 834.795 79.3 832.128C79.3 828.395 77.7 825.995 70.1 818.262C64.3667 812.395 59.9667 808.928 58.1 808.928C56.5 808.928 54.9 807.995 54.5 806.928C53.9667 805.595 51.8333 804.928 48.6333 804.928C45.4333 804.928 42.9 803.995 41.3 802.262C39.7 800.528 37.1667 799.595 33.7 799.595C29.1667 799.595 28.6333 799.195 28.6333 796.262C28.6333 793.328 29.1667 792.928 33.8333 792.928C36.7667 792.928 39.7 792.128 40.6333 790.928C41.5667 789.728 44.5 788.928 47.4333 788.928C51.1667 788.928 52.9 788.262 53.9667 786.262C54.7667 784.795 56.6333 783.595 58.1 783.595C59.8333 783.595 64.6333 779.862 70.1 774.395C77.8333 766.662 79.3 764.528 79.3 760.662C79.3 757.862 80.2333 755.328 81.9667 753.862C83.7 752.395 84.6333 749.995 84.6333 747.062C84.6333 744.662 85.5667 741.862 86.6333 740.928C87.8333 739.995 88.6333 737.062 88.6333 734.128C88.6333 731.195 89.3 728.928 89.9667 728.928C90.7667 728.928 91.3 731.195 91.3 734.128ZM385.967 841.595C386.9 842.662 389.033 843.595 390.633 843.595C392.367 843.595 393.967 844.528 394.5 845.595C394.9 846.662 396.767 847.595 398.5 847.595C400.5 847.595 402.5 848.662 403.3 850.262C404.1 851.728 405.967 852.928 407.3 852.928C411.033 852.928 432.633 874.395 432.633 878.128C432.633 879.728 433.567 881.328 434.633 881.728C436.367 882.395 436.633 886.262 436.633 904.928C436.633 923.195 436.233 927.595 434.633 928.928C433.567 929.862 432.633 931.595 432.633 932.662C432.633 935.595 423.3 944.928 420.5 944.928C419.3 944.928 417.567 945.862 416.633 946.928C415.3 948.528 411.433 948.928 397.3 948.928C383.167 948.928 379.3 948.528 377.967 946.928C377.033 945.862 375.167 944.928 373.833 944.928C370.633 944.928 361.967 936.262 361.967 933.062C361.967 931.728 360.767 929.595 359.3 928.262C356.9 926.128 356.633 924.128 356.633 906.795C356.633 889.062 356.767 887.595 359.3 886.262C361.567 885.062 361.967 883.462 361.967 875.862C361.967 870.528 361.3 866.128 360.367 865.195C359.433 864.262 355.967 863.595 352.5 863.595C346.5 863.595 345.7 864.128 338.1 871.728C331.433 878.395 329.967 880.662 329.967 884.262C329.967 886.662 329.033 889.328 327.967 890.262C326.9 891.195 325.967 894.128 325.967 896.928C325.967 900.128 325.3 902.262 323.967 902.795C322.233 903.462 321.967 908.262 321.967 934.928C321.967 961.595 322.233 966.395 323.967 967.062C325.3 967.595 325.967 969.728 325.967 972.928C325.967 975.728 326.9 978.662 327.967 979.595C329.033 980.528 329.967 982.395 329.967 983.728C329.967 985.195 331.167 987.328 332.633 988.528C334.1 989.862 335.3 991.862 335.3 993.195C335.3 994.528 338.5 998.795 342.367 1002.93L349.567 1010.26H367.3H384.9L394.767 1000.26C400.233 994.795 404.633 989.328 404.633 988.262C404.633 987.195 407.833 983.062 411.7 978.928C418.233 972.262 419.433 971.595 424.767 971.595C429.7 971.595 431.3 972.395 436.233 977.195C441.7 982.528 441.967 983.195 441.967 990.928C441.967 998.528 441.7 999.195 437.3 1002.79C434.767 1004.93 432.633 1007.86 432.633 1009.33C432.633 1012.79 423.033 1022.26 419.433 1022.26C417.833 1022.26 416.233 1023.19 415.833 1024.26C415.3 1025.33 413.567 1026.26 411.833 1026.26C409.967 1026.26 408.233 1027.19 407.833 1028.26C407.3 1029.33 405.7 1030.26 403.967 1030.26C402.367 1030.26 400.233 1031.19 399.3 1032.26C398.367 1033.33 395.567 1034.26 393.167 1034.26C390.233 1034.26 387.833 1035.19 386.367 1036.93C384.1 1039.46 382.367 1039.59 345.967 1039.59C309.567 1039.59 307.833 1039.46 305.567 1036.93C304.367 1035.46 302.233 1034.26 300.767 1034.26C299.433 1034.26 297.567 1033.33 296.633 1032.26C295.7 1031.19 292.767 1030.26 290.1 1030.26C286.5 1030.13 284.5 1029.19 281.967 1026.26C280.233 1023.99 277.567 1022.26 276.233 1022.26C273.033 1022.26 255.3 1004.13 255.3 1000.93C255.3 999.595 253.167 996.662 250.633 994.395C248.1 992.128 245.967 989.195 245.967 987.862C245.967 986.395 245.033 984.528 243.967 983.595C242.9 982.662 241.967 979.728 241.967 976.928C241.967 973.728 241.3 971.595 239.967 971.062C238.233 970.528 237.967 965.995 237.967 941.862C237.967 917.995 238.367 912.928 239.967 911.595C241.3 910.528 241.967 907.595 241.967 903.328C241.967 897.862 242.633 896.262 245.967 892.928C248.767 890.128 249.967 887.728 249.967 884.662C249.967 881.062 251.567 878.662 259.567 870.662C264.9 865.328 270.367 860.928 271.7 860.928C273.033 860.928 275.833 859.062 277.967 856.928C280.1 854.662 283.033 852.928 284.5 852.928C285.967 852.928 287.833 851.728 288.633 850.262C289.433 848.662 291.433 847.595 293.433 847.595C295.167 847.595 297.033 846.662 297.433 845.595C297.967 844.262 300.1 843.595 303.3 843.595C306.1 843.595 309.033 842.662 309.967 841.595C311.433 839.862 317.3 839.595 347.967 839.595C378.633 839.595 384.5 839.862 385.967 841.595ZM603.833 841.595C604.233 842.928 606.367 843.595 609.967 843.595C613.567 843.595 615.7 844.262 616.1 845.595C616.633 846.662 618.233 847.595 619.967 847.595C621.567 847.595 623.967 848.795 625.3 850.262C626.633 851.728 628.767 852.928 629.967 852.928C631.167 852.928 633.833 854.662 635.967 856.928C638.1 859.062 640.9 860.928 642.1 860.928C645.167 860.928 659.3 875.328 659.3 878.262C659.3 879.595 660.233 881.328 661.3 882.262C662.367 883.195 663.3 884.928 663.3 886.262C663.3 887.595 664.233 889.328 665.3 890.262C666.367 891.195 667.3 893.328 667.3 895.195C667.3 896.928 668.233 898.662 669.3 899.062C670.633 899.595 671.3 901.728 671.3 904.928C671.3 908.128 672.233 910.662 673.967 912.262C676.5 914.528 676.633 916.395 676.633 939.595C676.633 962.795 676.5 964.662 673.967 966.928C671.967 968.662 671.3 971.062 671.3 976.128C671.167 981.995 670.633 983.328 667.3 986.262C664.233 988.662 663.3 990.528 663.3 994.128C663.3 998.395 661.833 1000.39 649.7 1012.53C640.767 1021.46 635.033 1026.26 633.167 1026.26C631.567 1026.26 629.967 1027.19 629.433 1028.26C629.033 1029.33 627.167 1030.26 625.3 1030.26C623.433 1030.26 621.567 1031.19 621.167 1032.26C620.633 1033.59 618.5 1034.26 615.3 1034.26C612.1 1034.26 609.567 1035.19 607.967 1036.93C605.7 1039.46 603.833 1039.59 569.967 1039.59C536.1 1039.59 534.233 1039.46 531.967 1036.93C530.367 1035.19 527.833 1034.26 524.633 1034.26C521.433 1034.26 519.3 1033.59 518.767 1032.26C518.367 1031.19 516.5 1030.26 514.633 1030.26C512.767 1030.26 510.9 1029.33 510.5 1028.26C509.967 1027.19 508.367 1026.26 506.767 1026.26C502.767 1026.26 472.633 995.995 472.633 991.862C472.633 990.262 471.7 988.528 470.633 988.128C469.3 987.595 468.633 985.462 468.633 982.262C468.633 979.062 467.7 976.528 465.967 974.928C463.433 972.662 463.3 970.795 463.3 939.062C463.3 907.195 463.433 905.462 465.967 903.195C467.433 901.995 468.633 899.862 468.633 898.395C468.633 897.062 469.567 895.195 470.633 894.262C471.7 893.328 472.633 891.595 472.633 890.262C472.633 888.928 473.567 887.195 474.633 886.262C475.7 885.328 476.633 883.595 476.633 882.262C476.633 879.195 502.767 852.928 505.833 852.928C507.167 852.928 509.3 851.728 510.633 850.262C511.967 848.795 514.1 847.595 515.3 847.595C516.633 847.595 518.367 846.662 519.3 845.595C520.367 844.262 523.433 843.595 528.233 843.595C533.3 843.595 535.567 843.062 536.1 841.595C536.767 839.862 541.833 839.595 569.967 839.595C598.1 839.595 603.167 839.862 603.833 841.595ZM1085.97 841.595C1086.9 842.662 1088.63 843.595 1089.97 843.595C1091.3 843.595 1093.03 844.528 1093.97 845.595C1094.9 846.662 1096.63 847.595 1097.97 847.595C1099.17 847.595 1101.3 848.795 1102.63 850.262C1103.97 851.728 1106.1 852.928 1107.43 852.928C1110.77 852.928 1136.63 878.928 1136.63 882.262C1136.63 883.862 1137.57 885.328 1138.63 885.728C1140.23 886.395 1140.63 889.995 1140.63 906.928C1140.63 923.328 1140.23 927.595 1138.63 928.928C1137.57 929.862 1136.63 931.595 1136.63 932.928C1136.63 934.262 1135.7 935.995 1134.63 936.928C1133.57 937.862 1132.63 939.728 1132.63 941.062C1132.63 943.995 1118.37 958.262 1115.3 958.262C1114.1 958.262 1111.43 959.995 1109.3 962.262C1107.17 964.395 1104.5 966.262 1103.17 966.262C1101.97 966.262 1100.23 967.195 1099.3 968.262C1098.37 969.462 1095.43 970.262 1092.5 970.262C1088.77 970.262 1087.03 970.928 1085.97 972.928C1084.77 975.195 1083.17 975.595 1074.77 975.595C1067.3 975.595 1064.77 976.128 1064.1 977.595C1063.57 979.195 1060.37 979.595 1047.7 979.595C1032.9 979.595 1031.83 979.862 1029.03 982.795C1026.63 985.195 1025.97 987.595 1025.97 992.795C1025.97 998.928 1026.5 1000.13 1031.3 1004.93L1036.63 1010.26H1056.5C1072.5 1010.26 1076.63 1009.86 1077.97 1008.26C1078.9 1007.19 1080.63 1006.26 1081.83 1006.26C1083.03 1006.26 1091.83 998.395 1101.3 988.928L1118.63 971.595H1126.5C1132.9 971.595 1135.03 972.128 1137.57 974.528C1140.37 977.062 1140.63 978.528 1140.63 989.062C1140.63 998.128 1140.23 1000.79 1138.63 1001.46C1137.57 1001.86 1136.63 1003.33 1136.63 1004.79C1136.63 1008.39 1118.9 1026.26 1115.3 1026.26C1113.83 1026.26 1112.23 1027.19 1111.83 1028.26C1111.3 1029.33 1109.7 1030.26 1107.97 1030.26C1106.37 1030.26 1104.23 1031.19 1103.3 1032.26C1102.37 1033.33 1099.57 1034.26 1097.17 1034.26C1094.23 1034.26 1091.83 1035.19 1090.37 1036.93C1088.1 1039.46 1086.37 1039.59 1049.97 1039.59C1013.57 1039.59 1011.83 1039.46 1009.57 1036.93C1008.1 1035.19 1005.7 1034.26 1002.77 1034.26C1000.37 1034.26 997.567 1033.33 996.633 1032.26C995.7 1031.19 993.7 1030.26 992.1 1030.26C990.633 1030.13 987.833 1028.39 985.967 1026.26C984.233 1023.99 981.7 1022.26 980.367 1022.26C977.167 1022.26 953.967 998.928 953.967 995.862C953.967 994.528 952.233 991.995 949.967 990.262C947.833 988.395 946.1 985.595 945.967 984.128C945.967 982.528 945.033 980.528 943.967 979.595C942.767 978.662 941.967 975.728 941.967 972.662C941.967 969.328 941.3 967.195 939.967 966.795C938.233 966.128 937.967 961.995 937.967 941.595C937.967 921.595 938.367 916.928 939.967 915.595C941.033 914.662 941.967 911.728 941.967 908.928C941.967 905.728 942.633 903.595 943.967 903.062C945.033 902.662 945.967 900.928 945.967 899.062C945.967 897.328 946.9 895.595 947.967 895.062C949.033 894.662 949.967 892.795 949.967 890.928C949.967 889.062 950.9 887.195 951.967 886.795C953.033 886.262 953.967 884.662 953.967 883.062C953.967 879.595 980.233 852.928 983.7 852.928C984.9 852.928 987.033 851.728 988.233 850.262C989.567 848.795 991.833 847.595 993.433 847.595C995.033 847.595 996.633 846.662 997.167 845.595C997.567 844.262 999.7 843.595 1003.03 843.595C1006.1 843.595 1009.03 842.795 1009.97 841.595C1011.43 839.862 1017.3 839.595 1047.97 839.595C1078.63 839.595 1084.5 839.862 1085.97 841.595Z" fill="#96D0FF"/>
<path d="M1035.57 417.328C1032.5 420.395 1029.97 424.262 1029.97 425.862C1029.97 427.328 1029.03 428.928 1027.97 429.462C1026.9 429.862 1025.97 431.595 1025.97 433.462C1025.97 435.195 1025.03 436.928 1023.97 437.462C1022.9 437.862 1021.97 439.728 1021.97 441.595C1021.97 443.462 1021.03 445.328 1019.97 445.728C1018.63 446.262 1017.97 448.395 1017.97 451.595C1017.97 454.795 1017.03 457.328 1015.3 458.928C1013.3 460.795 1012.63 463.062 1012.63 468.262C1012.63 473.328 1012.1 475.595 1010.63 476.128C1009.17 476.662 1008.63 478.928 1008.63 484.795C1008.63 490.528 1008.1 492.795 1006.63 493.462C1005.03 493.995 1004.63 496.795 1004.63 506.128C1004.63 515.462 1004.23 518.128 1002.63 518.795C1001.17 519.328 1000.63 521.862 1000.63 529.462C1000.63 534.928 1001.17 539.862 1001.97 540.262C1003.97 541.462 1031.3 513.595 1031.3 510.262C1031.3 508.795 1032.23 507.195 1033.3 506.795C1034.37 506.262 1035.3 504.662 1035.3 502.928C1035.3 501.328 1036.23 499.195 1037.3 498.262C1038.37 497.328 1039.3 495.595 1039.3 494.262C1039.3 493.062 1040.5 490.928 1041.97 489.595C1043.43 488.262 1044.63 485.862 1044.63 484.262C1044.63 482.528 1045.57 480.928 1046.63 480.395C1047.97 479.995 1048.63 477.862 1048.63 474.262C1048.63 470.662 1049.3 468.528 1050.63 468.128C1052.37 467.462 1052.63 463.328 1052.63 442.795C1052.63 418.928 1052.5 418.262 1049.43 415.062C1045.03 410.262 1042.1 410.795 1035.57 417.328Z" fill="#96D0FF"/>
<path d="M804.633 601.595C803.7 602.661 800.9 603.595 798.367 603.595C794.367 603.595 792.1 605.328 777.833 619.595C769.167 628.395 761.967 636.661 761.967 637.995C761.967 639.195 760.767 641.328 759.3 642.661C757.833 643.861 756.633 645.995 756.633 647.461C756.633 648.795 755.7 650.661 754.633 651.595C753.567 652.528 752.633 654.261 752.633 655.595C752.633 656.928 751.7 658.661 750.633 659.595C749.567 660.528 748.633 663.461 748.633 666.261C748.633 669.461 747.967 671.595 746.633 672.128C745.033 672.661 744.633 676.395 744.633 693.328C744.633 709.995 745.033 714.261 746.633 715.595C747.7 716.528 748.633 718.395 748.633 719.728C748.633 721.061 750.1 723.595 751.833 725.461C754.633 728.661 755.833 728.928 766.1 728.928H777.3L785.033 721.061C789.3 716.795 792.633 712.128 792.633 710.661C792.633 709.061 793.567 707.595 794.633 707.061C795.967 706.661 796.633 704.528 796.633 701.195C796.633 698.128 797.433 695.195 798.633 694.261C800.1 693.061 800.633 689.995 800.633 683.328C800.633 676.395 801.167 673.995 802.633 673.461C804.1 672.795 804.633 670.261 804.633 662.795C804.633 654.395 805.033 652.795 807.3 651.595C809.567 650.395 809.967 648.795 809.967 640.395C809.967 632.928 810.5 630.395 811.967 629.728C813.433 629.195 813.967 626.795 813.967 619.861C813.967 613.061 814.5 610.128 816.1 608.928C817.167 607.861 817.967 605.595 817.7 603.728C817.3 600.661 816.633 600.261 811.833 599.861C808.233 599.595 805.833 600.128 804.633 601.595Z" fill="#96D0FF"/>
<path d="M1171.7 613.862C1166.37 619.462 1161.97 625.062 1161.97 626.262C1161.97 627.595 1161.03 629.328 1159.97 630.262C1158.9 631.195 1157.97 634.128 1157.97 636.928C1157.97 640.262 1157.3 642.262 1155.97 642.795C1154.23 643.462 1153.97 645.995 1154.23 657.862C1154.63 672.262 1154.63 672.262 1158.1 672.662C1159.97 672.928 1162.23 672.128 1163.3 671.062C1164.23 669.862 1166.37 668.928 1167.97 668.928C1169.7 668.928 1171.3 667.995 1171.83 666.928C1172.23 665.595 1174.37 664.928 1177.57 664.928C1181.57 664.795 1183.57 663.862 1187.3 660.262C1189.83 657.728 1192.77 655.595 1193.97 655.595C1197.03 655.595 1205.97 645.995 1205.97 642.662C1205.97 641.195 1206.9 639.595 1207.97 639.062C1209.57 638.528 1209.97 635.595 1209.97 623.995C1209.97 610.528 1209.7 609.328 1206.77 606.528C1203.97 603.995 1202.23 603.595 1192.5 603.728H1181.3L1171.7 613.862Z" fill="#96D0FF"/>
<path d="M790.767 866.928C788.9 868.661 787.3 871.328 787.3 872.661C787.3 874.128 786.367 875.995 785.3 876.928C784.233 877.861 783.3 879.595 783.3 880.928C783.3 882.128 782.1 884.261 780.633 885.595C778.1 887.861 777.967 889.728 777.967 924.261C777.967 958.795 778.1 960.661 780.633 962.928C782.233 964.395 783.3 967.061 783.3 969.728C783.3 973.328 784.767 975.728 790.367 981.595C796.5 987.861 798.233 988.928 802.367 988.928C806.367 988.928 808.367 987.861 812.633 983.595C815.567 980.661 817.967 977.195 817.967 975.728C817.967 974.395 818.9 972.528 819.967 971.595C821.3 970.528 821.967 967.461 821.967 962.661C821.967 957.595 822.5 955.328 823.967 954.795C825.7 954.128 825.967 949.461 825.967 924.261C825.967 899.061 825.7 894.395 823.967 893.728C822.5 893.195 821.967 891.061 821.967 885.995C821.967 879.328 821.7 878.661 814.367 871.328C807.3 864.128 806.233 863.595 800.5 863.595C795.833 863.595 793.567 864.395 790.767 866.928Z" fill="#96D0FF"/>
<path d="M233.566 600.661C229.7 604.661 228.633 606.795 228.633 610.661C228.633 614.128 227.833 615.861 225.966 616.928C223.433 618.261 223.3 619.728 223.3 668.128C223.3 716.128 223.433 717.995 225.966 720.261C227.433 721.595 228.633 723.728 228.633 724.928C228.633 726.261 229.566 727.995 230.633 728.928C231.7 729.861 232.633 731.595 232.633 732.795C232.633 734.128 233.966 736.395 235.7 737.995C238.233 740.395 240.366 740.928 248.1 740.928C256.233 740.928 257.966 740.528 260.366 737.861C261.966 736.128 263.3 733.461 263.3 731.995C263.3 730.395 264.233 728.928 265.3 728.395C266.633 727.995 267.3 725.861 267.3 722.261C267.3 718.661 267.966 716.528 269.3 716.128C271.033 715.461 271.3 708.928 271.3 668.928C271.3 629.328 271.033 622.395 269.3 620.928C268.1 619.995 267.3 617.061 267.3 613.995C267.3 610.661 266.633 608.528 265.3 608.128C264.233 607.595 263.3 605.995 263.3 604.395C263.3 602.928 261.833 600.261 260.1 598.528C257.433 596.128 255.433 595.595 247.7 595.595C238.766 595.595 238.366 595.728 233.566 600.661Z" fill="#96D0FF"/>
<path d="M556.233 871.328C548.9 878.661 548.633 879.328 548.633 885.861C548.633 891.461 548.1 893.061 545.967 894.261C543.433 895.594 543.3 897.061 543.3 940.928C543.3 984.661 543.433 986.394 545.967 988.528C547.7 989.994 548.633 992.528 548.633 995.328C548.633 999.061 549.967 1001.19 555.833 1007.06C562.633 1013.99 563.3 1014.26 569.967 1014.26C576.233 1014.26 577.433 1013.73 582.1 1009.06C585.033 1006.26 587.3 1002.66 587.3 1001.06C587.3 999.461 588.233 997.861 589.3 997.461C590.767 996.794 591.3 994.394 591.3 987.594C591.3 980.394 591.833 978.261 593.967 976.261C596.5 973.994 596.633 972.128 596.633 941.594C596.633 911.061 596.5 909.194 593.967 906.928C591.833 904.928 591.3 902.794 591.3 895.328C591.3 888.394 590.767 885.994 589.3 885.461C588.1 884.928 587.3 882.928 587.3 879.861C587.3 875.994 586.233 873.861 581.7 869.328C576.767 864.261 575.433 863.594 569.967 863.594C564.367 863.594 563.3 864.128 556.233 871.328Z" fill="#96D0FF"/>
<path d="M1031.57 869.328C1028.5 872.394 1025.97 876.261 1025.97 877.861C1025.97 879.328 1025.03 880.928 1023.97 881.461C1022.23 881.994 1021.97 886.394 1021.97 909.594C1021.97 932.794 1022.23 937.194 1023.97 937.728C1025.03 938.261 1025.97 939.728 1025.97 941.194C1025.97 942.661 1028.23 946.261 1031.17 949.061C1035.83 953.861 1036.9 954.261 1043.57 954.261C1050.1 954.261 1051.17 953.861 1055.7 949.194C1058.37 946.394 1060.63 943.194 1060.63 942.128C1060.63 940.928 1061.83 938.928 1063.3 937.594C1065.83 935.328 1065.97 933.461 1065.97 909.594C1065.97 885.728 1065.83 883.861 1063.3 881.594C1061.83 880.261 1060.63 878.128 1060.63 876.661C1060.63 875.328 1058.1 871.861 1055.17 868.928C1050.37 864.261 1048.9 863.594 1043.43 863.594C1037.83 863.594 1036.63 864.128 1031.57 869.328Z" fill="#96D0FF"/>
</svg>
